<svg id="Calque_1" data-name="Calque 1" xmlns="http://www.w3.org/2000/svg" viewBox="0 0 237.82 43.33"><defs><style>.cls-1{fill:#fd2d01;}.cls-2{fill:#ffd7d7;}</style></defs><g id="b5a93e15-ef7c-9d7a-680b-cdb17474f15f"><path class="cls-1" d="M62.77,29.77h0a10.92,10.92,0,0,1-8-3.23h0a11,11,0,0,1-3.23-8.08h0a10.9,10.9,0,0,1,3.23-8h0a10.89,10.89,0,0,1,8-3.24h0a12.15,12.15,0,0,1,8.27,3h0l-3,3.27h0a8.36,8.36,0,0,0-5.28-1.8h0a6.67,6.67,0,0,0-4.91,1.91h0A6.55,6.55,0,0,0,56,18.42h0a6.67,6.67,0,0,0,1.87,5h0a6.63,6.63,0,0,0,4.9,1.85h0a6.28,6.28,0,0,0,3.74-.94h0V20.44l-3,0V16.24H71V26.78h0a12.17,12.17,0,0,1-8.27,3Zm16.35-15V16.4h0a5.3,5.3,0,0,1,3.93-1.65h0a7.75,7.75,0,0,1,1.39.11h0L83.78,19h0a3.16,3.16,0,0,0-2.09-.7h0c-1,.07-1.89.81-2.57,2.22h0v9.24H74.91V15.19ZM94,29.93h0a7.46,7.46,0,0,1-5.48-2.2h0a7.47,7.47,0,0,1-2.18-5.46h0a7.49,7.49,0,0,1,2.18-5.48h0A7.42,7.42,0,0,1,94,14.59h0a7.44,7.44,0,0,1,5.48,2.2h0a7.46,7.46,0,0,1,2.2,5.48h0a7.42,7.42,0,0,1-2.2,5.46h0A7.48,7.48,0,0,1,94,29.93Zm0-3.63h0a3.6,3.6,0,0,0,2.77-1.17h0a4,4,0,0,0,1.08-2.86h0a4,4,0,0,0-1.08-2.86h0A3.62,3.62,0,0,0,94,18.24h0a3.58,3.58,0,0,0-2.77,1.17h0a4,4,0,0,0-1.06,2.86h0a4,4,0,0,0,1.06,2.86h0A3.61,3.61,0,0,0,94,26.3Zm19.6-1.85h0V14.72h4.2V29.77h-4.2V28.41h0A5.2,5.2,0,0,1,110,29.77h0A5.42,5.42,0,0,1,105.65,28h0a5.88,5.88,0,0,1-1.52-4h0V14.72h4.22V23h0a3.38,3.38,0,0,0,.75,2.33h0a3.06,3.06,0,0,0,2.27.88h0A2.88,2.88,0,0,0,113.61,24.45Zm12,11.66-4.2,0V15.19l4.2-.47v1.21h0a5.78,5.78,0,0,1,3.32-1.21h0A7,7,0,0,1,134.4,17h0a7.54,7.54,0,0,1,2,5.26h0a7.54,7.54,0,0,1-2,5.26h0a7,7,0,0,1-5.48,2.26h0a5,5,0,0,1-3.32-1.23h0Zm0-15.23h0v2.45h0c.21,1.68,1.26,2.67,3.17,3h0a4,4,0,0,0,4.07-3.74h0q-.15-4.23-4.07-4.38h0C126.86,18.49,125.81,19.39,125.6,20.88Zm20.64,9.05h0a7.39,7.39,0,0,1-5.46-2.2h0a7.41,7.41,0,0,1-2.2-5.46h0a7.42,7.42,0,0,1,2.2-5.48h0a7.35,7.35,0,0,1,5.46-2.2h0a7.44,7.44,0,0,1,5.48,2.2h0a7.46,7.46,0,0,1,2.2,5.48h0a7.42,7.42,0,0,1-2.2,5.46h0a7.48,7.48,0,0,1-5.48,2.2Zm0-3.63h0A3.55,3.55,0,0,0,149,25.13h0a4,4,0,0,0,1.08-2.86h0A4,4,0,0,0,149,19.41h0a3.58,3.58,0,0,0-2.79-1.17h0a3.62,3.62,0,0,0-2.78,1.17h0a4.07,4.07,0,0,0-1.05,2.86h0a4.07,4.07,0,0,0,1.05,2.86h0A3.63,3.63,0,0,0,146.24,26.3Zm14.69-6.14h0v9.61h-4.22V15.19l4.22-.47v1.35h0a5.07,5.07,0,0,1,3.61-1.32h0a5.53,5.53,0,0,1,4.36,1.71h0a6.58,6.58,0,0,1,4.95-1.71h0a5.57,5.57,0,0,1,4.38,1.71h0a6,6,0,0,1,1.49,4h0v9.3h-4.2V21.5h0a3.59,3.59,0,0,0-.68-2.33h0a2.82,2.82,0,0,0-2.2-.86h0A2.81,2.81,0,0,0,170.48,20h0a4.94,4.94,0,0,0-.09.95h0v8.86h-4.2V21.5h0a3.59,3.59,0,0,0-.68-2.33h0a2.82,2.82,0,0,0-2.2-.86h0A3.06,3.06,0,0,0,160.93,20.16Zm24.45-1.06-1.65-2.55h0a12.14,12.14,0,0,1,6.62-1.8h0a5.93,5.93,0,0,1,4.27,1.49h0a6,6,0,0,1,1.58,4.51h0v9H192V28.58h0a6.26,6.26,0,0,1-3.32,1.19h0a6.85,6.85,0,0,1-4.51-1.27h0a4.4,4.4,0,0,1-1.5-3.52h0a5.62,5.62,0,0,1,1.43-3.77h0c.94-1.1,2.46-1.65,4.58-1.65h0a7.61,7.61,0,0,1,3.32.91h0V20h0c0-1.1-.84-1.7-2.42-1.8h0a8.14,8.14,0,0,0-4.2.9ZM192,25.26h0V23.57h0c-.4-.78-1.35-1.17-2.86-1.17h0c-1.81.21-2.76.91-2.86,2.11h0c.1,1.19,1.05,1.84,2.86,1.94h0C190.65,26.45,191.6,26.05,192,25.26Zm12.19-5h0v9.55H200V15.19l4.23-.47v1.37h0a5.22,5.22,0,0,1,3.6-1.34h0a5.49,5.49,0,0,1,4.36,1.71h0a6,6,0,0,1,1.5,4h0v9.3h-4.21V21.5h0a3.39,3.39,0,0,0-.74-2.33h0a3.13,3.13,0,0,0-2.29-.86h0C205.54,18.37,204.8,19,204.19,20.22Zm17.2,9.55h-4.2v-15h4.2ZM217,11.14h0a2,2,0,0,0,.6,1.49h0a2.29,2.29,0,0,0,1.67.6h0a2.26,2.26,0,0,0,1.65-.6h0a2,2,0,0,0,.59-1.49h0A2.09,2.09,0,0,0,221,9.62h0A2.3,2.3,0,0,0,219.26,9h0a2.2,2.2,0,0,0-1.63.62h0A2.1,2.1,0,0,0,217,11.14Zm10,8-1.65-2.55h0a12.16,12.16,0,0,1,6.62-1.8h0a6,6,0,0,1,4.29,1.49h0a6,6,0,0,1,1.56,4.51h0v9h-4.2V28.58h0a6.17,6.17,0,0,1-3.3,1.19h0a6.82,6.82,0,0,1-4.51-1.27h0A4.38,4.38,0,0,1,224.29,25h0a5.62,5.62,0,0,1,1.43-3.77h0q1.41-1.65,4.6-1.65h0a7.56,7.56,0,0,1,3.3.91h0V20h0q0-1.65-2.4-1.8h0a8.3,8.3,0,0,0-4.22.9Zm6.62,6.16h0V23.57h0c-.39-.78-1.35-1.17-2.86-1.17h0c-1.8.21-2.76.91-2.86,2.11h0c.1,1.19,1.06,1.84,2.86,1.94h0C232.27,26.45,233.23,26.05,233.62,25.26Z"/></g><g id="_9269873b-566f-aa23-fe77-697bbc54db67" data-name="9269873b-566f-aa23-fe77-697bbc54db67"><path class="cls-2" d="M21.66,43.33A21.7,21.7,0,0,0,37,6.32a21.79,21.79,0,0,0-30.69,0A21.79,21.79,0,0,0,6.32,37,21.55,21.55,0,0,0,21.66,43.33Zm1.25-3.68a10.45,10.45,0,0,1-1.25.05c-.57,0-1.14-.05-1.71-.1a31.72,31.72,0,0,1-4.09-9.28H25a4.45,4.45,0,0,0,1.56,2A31.68,31.68,0,0,1,22.91,39.65Zm4.92-1a32.85,32.85,0,0,0,2.39-5.54,4.5,4.5,0,0,0,3.26-2.75h4A18.44,18.44,0,0,1,27.83,38.61ZM39.65,21.66a20.13,20.13,0,0,1-.67,5h-5.6a4.72,4.72,0,0,0-1.45-1.76q.15-1.71.15-3.42a35.72,35.72,0,0,0-.31-4.77h7.15A15.74,15.74,0,0,1,39.65,21.66ZM37.47,13H31.15a34.63,34.63,0,0,0-3-8.14A18.33,18.33,0,0,1,37.47,13Zm-9,8.45c0,.88-.05,1.76-.1,2.64a4.47,4.47,0,0,0-3.21,2.54h-10a37.35,37.35,0,0,1-.36-4.72,26.51,26.51,0,0,1,.16-3A4.71,4.71,0,0,0,18,16.69h10.1A35.72,35.72,0,0,1,28.45,21.46ZM20.32,3.73a12.46,12.46,0,0,1,1.34,0c.52,0,1,0,1.56,0A31.35,31.35,0,0,1,27.31,13h-9a5.08,5.08,0,0,0-1.61-2.23A33.14,33.14,0,0,1,20.32,3.73Zm-4.93,1A38.42,38.42,0,0,0,13.11,10a4.59,4.59,0,0,0-3.42,3H5.91A18.2,18.2,0,0,1,15.39,4.77ZM3.68,21.66a17.32,17.32,0,0,1,.73-5h5.64a5.18,5.18,0,0,0,1.3,1.5c-.1,1.25-.21,2.49-.21,3.73a36.69,36.69,0,0,0,.31,4.72h-7A16.06,16.06,0,0,1,3.68,21.66Zm8.4,8.61a35.6,35.6,0,0,0,3,8.14,18.17,18.17,0,0,1-9.22-8.14Z"/></g></svg>